# xmcd
#
# Track frame offsets: 
#        150
#        32239
#        50507
#        85996
#        119004
#        145538
#        178588
#        200636
#        230223
#        258739
#        310339
#
# Disc length: 4444 seconds
#
# Revision: 0
# Processed by: cddbd v1.5.2PL0 Copyright (c) Steve Scherf et al.
# Submitted via: ExactAudioCopy v1.3
#
DISCID=a6115a0b
DTITLE=Nasta Super - Jammin with Lurrie Bell
DYEAR=2020
DGENRE=Blues
TTITLE0=Every Day I've the Blues (feat. Lurrie Bell)
TTITLE1=Messing with the Kid (feat. Lurrie Bell)
TTITLE2=Reconsider Baby (feat. Lurrie Bell)
TTITLE3=Doodlin
TTITLE4=It Ain't Right (feat. Lurrie Bell)
TTITLE5=Spider in My Stew (feat. Lurrie Bell)
TTITLE6=Tavo's Stomp
TTITLE7=Blues After Hours
TTITLE8=I Need You so Bad (feat. Lurrie Bell)
TTITLE9=The Sky is Crying (feat. Lurrie Bell)
TTITLE10=Cat Shuffle
EXTD=
EXTT0=
EXTT1=
EXTT2=
EXTT3=
EXTT4=
EXTT5=
EXTT6=
EXTT7=
EXTT8=
EXTT9=
EXTT10=
PLAYORDER=
